# xmcd
#
# Track frame offsets: 
#        150
#        17561
#        37696
#        57197
#        73549
#        89337
#        104779
#        120845
#        135341
#        152183
#        165208
#        179413
#        198806
#        219128
#        236367
#        257050
#        276208
#        290460
#        307113
#        325355
#        337262
#
# Disc length: 4796 seconds
#
# Revision: 0
# Processed by: cddbd v1.5.2PL0 Copyright (c) Steve Scherf et al.
# Submitted via: ExactAudioCopy v0.99pb4
#
DISCID=2212ba15
DTITLE=Various Artist - prevue promo 1163A-1
DYEAR=2005
DGENRE=pop
TTITLE0=Joss Stone - Spoiled 
TTITLE1=Vertical Horizon  - Forever
TTITLE2=Kimberley Locke - I Could 
TTITLE3=Natasha Bedingfield  - These Words
TTITLE4=Deana Carter - The girl you left me for
TTITLE5=The Exies - UglY
TTITLE6=Shaklra Feat. Alejandro Sanz - La Tortora 
TTITLE7=Shaklra Feat. Alejandro Sam - La Tortora(remix)
TTITLE8=Nivea - Parking Lot 
TTITLE9=Slightly Stoopid - somebody
TTITLE10=Stephen Malkmus - Mama 
TTITLE11=Tracy Bonham - Somethi!tg Beautiful 
TTITLE12=Rilo Kiley - Portions For Foxes 
TTITLE13=Jamie Cullum - These Are The Days 
TTITLE14=Ani DiFranco - Recoil 
TTITLE15=Audioslave - Your Time Has Come 
TTITLE16=The Exies - What You Deserve 
TTITLE17=Chemical Brothers Feat. Tim Burgess - The Boxer 
TTITLE18=Oueens Of The Stone Age - In Mv Head 
TTITLE19=Static-X - I'm The One 
TTITLE20=Black Label Society - Fire It Up 
EXTD=
EXTT0=
EXTT1=
EXTT2=
EXTT3=
EXTT4=
EXTT5=
EXTT6=
EXTT7=
EXTT8=
EXTT9=
EXTT10=
EXTT11=
EXTT12=
EXTT13=
EXTT14=
EXTT15=
EXTT16=
EXTT17=
EXTT18=
EXTT19=
EXTT20=
PLAYORDER=
